<?xml version="1.0" encoding="UTF-8"?>
<svg width="909px" height="374px" viewBox="0 0 909 374" version="1.1" xmlns="http://www.w3.org/2000/svg" xmlns:xlink="http://www.w3.org/1999/xlink">
    <!-- Generator: Sketch 48.2 (47327) - http://www.bohemiancoding.com/sketch -->
    <title>Practice 03xhdpi/</title>
    <desc>Created with Sketch.</desc>
    <defs>
        <rect id="path-1" x="0" y="0" width="888" height="440"></rect>
        <radialGradient cx="50%" cy="44.6212665%" fx="50%" fy="44.6212665%" r="65.3805892%" id="radialGradient-3">
            <stop stop-color="#FFFFFF" offset="0%"></stop>
            <stop stop-color="#FF9800" offset="100%"></stop>
        </radialGradient>
        <path d="M0,166 C105.770065,138.084084 172.125813,102.192192 199.067245,58.3243243 C226.008677,14.4564565 235.986985,14.4564565 229.002169,58.3243243 C336.767896,135.093093 449.023861,135.093093 565.770065,58.3243243 C682.516269,-18.4444444 692.494577,-18.4444444 595.704989,58.3243243 C623.644252,74.2762763 649.088937,86.7387387 672.039046,95.7117117 C694.989154,104.684685 694.989154,128.114114 672.039046,166 L0,166 Z" id="path-4"></path>
        <linearGradient x1="50%" y1="83.198736%" x2="50%" y2="15.2124298%" id="linearGradient-6">
            <stop stop-color="#E8E8E8" offset="0%"></stop>
            <stop stop-color="#FFFFFF" stop-opacity="0.322407156" offset="100%"></stop>
        </linearGradient>
        <filter x="-4.5%" y="-8.6%" width="109.0%" height="117.2%" filterUnits="objectBoundingBox" id="filter-7">
            <feGaussianBlur stdDeviation="5.09207589" in="SourceGraphic"></feGaussianBlur>
        </filter>
        <filter x="-4.2%" y="-8.2%" width="108.5%" height="116.4%" filterUnits="objectBoundingBox" id="filter-8">
            <feGaussianBlur stdDeviation="4.72377232" in="SourceGraphic"></feGaussianBlur>
        </filter>
    </defs>
    <g id="Page-1" stroke="none" stroke-width="1" fill="none" fill-rule="evenodd">
        <g id="Practice-03" transform="translate(13.000000, -68.000000)">
            <g id="Sun" transform="translate(3.000000, 0.000000)">
                <mask id="mask-2" fill="white">
                    <use xlink:href="#path-1"></use>
                </mask>
                <g id="Mask" transform="translate(444.000000, 220.000000) scale(1, -1) translate(-444.000000, -220.000000) "></g>
                <g id="Sun-Copy" mask="url(#mask-2)" fill="url(#radialGradient-3)">
                    <g transform="translate(163.000000, 68.000000)" id="sun">
                        <circle cx="219.950125" cy="219.950125" r="219.950125"></circle>
                    </g>
                </g>
            </g>
            <g id="SF-SKYLINE" transform="translate(2.000000, 154.000000)">
                <polygon id="Path-3" stroke="#000000" stroke-width="3" fill="#000000" points="1.49579832 286 0 119.765636 10 120 10 107.789072 17.9495798 107.789072 19.4453782 91.3212973 31.4117647 91.3212973 31.4117647 109.286143 40.3865546 109.286143 40.3865546 137.730481 76.2857143 137.730481 76.2857143 104.794931 91.2436975 104.794931 91.2436975 80.8418042 110.689076 80.8418042 110.689076 104.794931 121.159664 104.794931 121.159664 133.23927 125.647059 133.23927 125.647059 73.3564519 130.134454 71.8593815 137.613445 0 145.092437 71.8593815 151.07563 73.3564519 151.07563 143.718763 195.94958 143.718763 195.94958 157.192397 206.420168 157.192397 206.420168 178.151383 890 178.151383 890 191.625017 204.898691 191.625017 204.898691 211.08695 239.327731 211.08695 239.327731 199.11037 275.226891 199.11037 275.226891 211.08695 299.159664 211.08695 299.159664 199.11037 329.07563 199.11037 329.07563 206.595722 338.934168 206.595722 338.934168 211.08695 347.033081 211.08695 347.033081 286"></polygon>
                <polygon id="Path-4" stroke="#000000" stroke-width="9" points="425.842105 58 419.877193 269.026846 413.912281 278.006711 399 278.006711 399 281 484 281 473.561404 281 464.614035 281 457.157895 269.026846 451.192982 58"></polygon>
                <polygon id="Path-4-Copy" stroke="#000000" stroke-width="9" points="792.842105 58 786.877193 269.026846 780.912281 278.006711 766 278.006711 766 281 851 281 840.561404 281 831.614035 281 824.157895 269.026846 818.192982 58"></polygon>
                <polyline id="Path-5" stroke="#000000" stroke-width="3" points="427.5 69 448.5 98.924812 427.5 130.345865 453 170.744361 453 184.210526 423 227.601504 456 268"></polyline>
                <polyline id="Path-5-Copy" stroke="#000000" stroke-width="3" points="794.5 69 815.5 98.924812 794.5 130.345865 820 170.744361 820 184.210526 790 227.601504 823 268"></polyline>
                <polyline id="Path-6" stroke="#0B0B0B" stroke-width="3" points="450.5 69 423.5 101.916031 450.5 131.839695 426.5 164.755725 423.5 190.19084 450.5 227.59542 418 265 455 265"></polyline>
                <polyline id="Path-6-Copy" stroke="#0B0B0B" stroke-width="3" points="818.5 69 791.5 101.916031 818.5 131.839695 794.5 164.755725 791.5 190.19084 818.5 227.59542 786 265 823 265"></polyline>
                <g id="Bridge-line" transform="translate(227.000000, 12.000000)">
                    <mask id="mask-5" fill="white">
                        <use xlink:href="#path-4"></use>
                    </mask>
                    <g id="Mask"></g>
                    <g mask="url(#mask-5)" stroke="#000000" stroke-linecap="square" stroke-width="2">
                        <g transform="translate(53.882863, 58.324324)">
                            <path d="M127.223427,22.4324324 L127.223427,106.978608" id="Line-3"></path>
                            <path d="M314.316703,0 L314.316703,106.180045" id="Line-3-Copy-13"></path>
                            <path d="M450.520607,0 L450.520607,106.180045" id="Line-3-Copy-26"></path>
                            <path d="M502.906725,0 L502.906725,106.180045" id="Line-3-Copy-39"></path>
                            <path d="M597.201735,0 L597.201735,106.180045" id="Line-3-Copy-44"></path>
                            <path d="M609.175705,0 L609.175705,106.180045" id="Line-3-Copy-49"></path>
                            <path d="M95.791757,22.4324324 L95.791757,106.978608" id="Line-3-Copy-3"></path>
                            <path d="M282.885033,0 L282.885033,106.180045" id="Line-3-Copy-14"></path>
                            <path d="M419.088937,0 L419.088937,106.180045" id="Line-3-Copy-27"></path>
                            <path d="M471.475054,0 L471.475054,106.180045" id="Line-3-Copy-40"></path>
                            <path d="M565.770065,0 L565.770065,106.180045" id="Line-3-Copy-45"></path>
                            <path d="M64.3600868,22.4324324 L64.3600868,106.978608" id="Line-3-Copy-6"></path>
                            <path d="M251.453362,0 L251.453362,106.180045" id="Line-3-Copy-15"></path>
                            <path d="M387.657267,0 L387.657267,106.180045" id="Line-3-Copy-28"></path>
                            <path d="M22.4511931,23.9279279 L22.4511931,108.474104" id="Line-3-Copy-9"></path>
                            <path d="M209.544469,2.99099099 L209.544469,109.171036" id="Line-3-Copy-16"></path>
                            <path d="M345.748373,2.99099099 L345.748373,109.171036" id="Line-3-Copy-29"></path>
                            <path d="M116.746204,22.4324324 L116.746204,106.978608" id="Line-3-Copy"></path>
                            <path d="M303.839479,0 L303.839479,106.180045" id="Line-3-Copy-17"></path>
                            <path d="M440.043384,0 L440.043384,106.180045" id="Line-3-Copy-30"></path>
                            <path d="M492.429501,0 L492.429501,106.180045" id="Line-3-Copy-41"></path>
                            <path d="M586.724512,0 L586.724512,106.180045" id="Line-3-Copy-46"></path>
                            <path d="M85.3145336,22.4324324 L85.3145336,106.978608" id="Line-3-Copy-4"></path>
                            <path d="M272.407809,0 L272.407809,106.180045" id="Line-3-Copy-18"></path>
                            <path d="M408.611714,0 L408.611714,106.180045" id="Line-3-Copy-31"></path>
                            <path d="M460.997831,0 L460.997831,106.180045" id="Line-3-Copy-42"></path>
                            <path d="M555.292842,0 L555.292842,106.180045" id="Line-3-Copy-47"></path>
                            <path d="M53.8828633,22.4324324 L53.8828633,106.978608" id="Line-3-Copy-7"></path>
                            <path d="M240.976139,0 L240.976139,106.180045" id="Line-3-Copy-19"></path>
                            <path d="M377.180043,0 L377.180043,106.180045" id="Line-3-Copy-32"></path>
                            <path d="M11.9739696,23.9279279 L11.9739696,108.474104" id="Line-3-Copy-10"></path>
                            <path d="M199.067245,2.99099099 L199.067245,109.171036" id="Line-3-Copy-20"></path>
                            <path d="M335.27115,2.99099099 L335.27115,109.171036" id="Line-3-Copy-33"></path>
                            <path d="M106.26898,22.4324324 L106.26898,106.978608" id="Line-3-Copy-2"></path>
                            <path d="M293.362256,0 L293.362256,106.180045" id="Line-3-Copy-21"></path>
                            <path d="M429.566161,0 L429.566161,106.180045" id="Line-3-Copy-34"></path>
                            <path d="M481.952278,0 L481.952278,106.180045" id="Line-3-Copy-43"></path>
                            <path d="M576.247289,0 L576.247289,106.180045" id="Line-3-Copy-48"></path>
                            <path d="M74.8373102,22.4324324 L74.8373102,106.978608" id="Line-3-Copy-5"></path>
                            <path d="M261.930586,0 L261.930586,106.180045" id="Line-3-Copy-22"></path>
                            <path d="M398.13449,0 L398.13449,106.180045" id="Line-3-Copy-35"></path>
                            <path d="M32.9284165,23.9279279 L32.9284165,108.474104" id="Line-3-Copy-11"></path>
                            <path d="M220.021692,2.99099099 L220.021692,109.171036" id="Line-3-Copy-23"></path>
                            <path d="M356.225597,2.99099099 L356.225597,109.171036" id="Line-3-Copy-36"></path>
                            <path d="M43.4056399,22.4324324 L43.4056399,106.978608" id="Line-3-Copy-8"></path>
                            <path d="M230.498915,0 L230.498915,106.180045" id="Line-3-Copy-24"></path>
                            <path d="M366.70282,0 L366.70282,106.180045" id="Line-3-Copy-37"></path>
                            <path d="M1.4967462,23.9279279 L1.4967462,108.474104" id="Line-3-Copy-12"></path>
                            <path d="M188.590022,2.99099099 L188.590022,109.171036" id="Line-3-Copy-25"></path>
                            <path d="M324.793926,2.99099099 L324.793926,109.171036" id="Line-3-Copy-38"></path>
                        </g>
                    </g>
                </g>
                <path d="M226,176 C299.814536,166.046948 366.14787,130.713615 425,70" id="Path-7" stroke="#040303" stroke-width="2"></path>
                <path d="M238,181 C303.964646,170 366.29798,134 425,73" id="Path-7-Copy" stroke="#040303" stroke-width="2"></path>
                <path d="M455,71 C518.137427,109.666667 573.137427,129 620,129 C666.862573,129 725.52924,109.666667 796,71" id="Path-8" stroke="#000000" stroke-width="2"></path>
                <path d="M454,72 C513.494152,115.333333 566.672515,137 613.535088,137 C660.397661,137 719.885965,116.333333 792,75" id="Path-8-Copy" stroke="#000000" stroke-width="2"></path>
                <path d="M821,67 C841.307692,84.1428571 865.307692,96.1428571 893,103" id="Path-9" stroke="#000000" stroke-width="2"></path>
                <path d="M821,67 C841.307692,88.4285714 865.307692,103.428571 893,112" id="Path-9-Copy" stroke="#000000" stroke-width="2"></path>
            </g>
            <g id="Cloud-Back" transform="translate(0.000000, 92.000000)" fill="url(#linearGradient-6)" fill-rule="nonzero" class="cloud">
                <path d="M77.2751878,178 L262.724812,178 C302.571127,177.998696 335.88324,156.186255 339.650186,127.629701 C343.41532,99.0731472 316.400163,73.1370584 277.265584,67.7383783 C270.193506,28.9789575 224.303779,0 170,0 C115.696221,0 69.806494,28.9789575 62.734416,67.7383783 C23.5998366,73.1370584 -3.41532012,99.0731472 0.34981434,127.629701 C4.1149488,156.186255 37.427062,177.998696 77.2751878,178 Z" id="cloud-copy" filter="url(#filter-7)"></path>
            </g>
            <g id="Cloud-Front" transform="translate(112.000000, 208.000000)" fill="url(#linearGradient-6)" fill-rule="nonzero" class="cloud">
                <path d="M76.138788,173 L258.861212,173 C298.121552,172.998733 330.943781,151.799001 334.65533,124.044597 C338.365095,96.2901936 311.74722,71.0826467 273.188149,65.8356148 C266.220072,28.1649418 221.005194,0 167.5,0 C113.994806,0 68.7799279,28.1649418 61.8118511,65.8356148 C23.2527802,71.0826467 -3.36509483,96.2901936 0.344670012,124.044597 C4.05443485,151.799001 36.876664,172.998733 76.138788,173 Z" id="cloud-copy" filter="url(#filter-8)"></path>
            </g>
        </g>
    </g>
</svg>
