<?xml version="1.0" encoding="UTF-8"?>
<svg width="1440px" height="1020px" viewBox="0 0 1440 1020" version="1.1" xmlns="http://www.w3.org/2000/svg" xmlns:xlink="http://www.w3.org/1999/xlink">
    <!-- Generator: Sketch 48.2 (47327) - http://www.bohemiancoding.com/sketch -->
    <title>hdpi/background svg</title>
    <desc>Created with Sketch.</desc>
    <defs></defs>
    <g id="Desktop-HD" stroke="none" stroke-width="1" fill="none" fill-rule="evenodd">
        <g id="background-svg" fill="#EAFFEB">
            <rect id="Rectangle-4" x="0" y="400" width="40" height="620"></rect>
            <rect id="Rectangle-4-Copy-16" transform="translate(1060.000000, 660.000000) scale(-1, 1) translate(-1060.000000, -660.000000) " x="1040" y="300" width="40" height="720"></rect>
            <rect id="Rectangle-4-Copy-23" transform="translate(1000.000000, 510.000000) scale(-1, 1) translate(-1000.000000, -510.000000) " x="980" y="0" width="40" height="1020"></rect>
            <rect id="Rectangle-4-Copy-8" x="480" y="0" width="40" height="1020"></rect>
            <rect id="Rectangle-4-Copy-4" x="240" y="540" width="40" height="480"></rect>
            <rect id="Rectangle-4-Copy-17" transform="translate(1300.000000, 780.000000) scale(-1, 1) translate(-1300.000000, -780.000000) " x="1280" y="540" width="40" height="480"></rect>
            <rect id="Rectangle-4-Copy-9" x="740" y="0" width="40" height="1020"></rect>
            <rect id="Rectangle-4-Copy" x="60" y="440" width="40" height="580"></rect>
            <rect id="Rectangle-4-Copy-18" transform="translate(1120.000000, 710.000000) scale(-1, 1) translate(-1120.000000, -710.000000) " x="1100" y="400" width="40" height="620"></rect>
            <rect id="Rectangle-4-Copy-10" x="540" y="0" width="40" height="1020"></rect>
            <rect id="Rectangle-4-Copy-5" x="300" y="360" width="40" height="660"></rect>
            <rect id="Rectangle-4-Copy-19" transform="translate(1360.000000, 690.000000) scale(-1, 1) translate(-1360.000000, -690.000000) " x="1340" y="360" width="40" height="660"></rect>
            <rect id="Rectangle-4-Copy-11" x="800" y="0" width="40" height="1020"></rect>
            <rect id="Rectangle-4-Copy-2" x="120" y="480" width="40" height="540"></rect>
            <rect id="Rectangle-4-Copy-20" transform="translate(1180.000000, 750.000000) scale(-1, 1) translate(-1180.000000, -750.000000) " x="1160" y="480" width="40" height="540"></rect>
            <rect id="Rectangle-4-Copy-12" x="600" y="0" width="40" height="1020"></rect>
            <rect id="Rectangle-4-Copy-6" x="360" y="200" width="40" height="820"></rect>
            <rect id="Rectangle-4-Copy-21" transform="translate(1420.000000, 610.000000) scale(-1, 1) translate(-1420.000000, -610.000000) " x="1400" y="200" width="40" height="820"></rect>
            <rect id="Rectangle-4-Copy-13" x="860" y="0" width="40" height="1020"></rect>
            <rect id="Rectangle-4-Copy-3" x="180" y="500" width="40" height="520"></rect>
            <rect id="Rectangle-4-Copy-22" transform="translate(1240.000000, 760.000000) scale(-1, 1) translate(-1240.000000, -760.000000) " x="1220" y="500" width="40" height="520"></rect>
            <rect id="Rectangle-4-Copy-14" x="660" y="0" width="60" height="1020"></rect>
            <rect id="Rectangle-4-Copy-7" x="420" y="0" width="40" height="1020"></rect>
            <rect id="Rectangle-4-Copy-15" x="920" y="0" width="40" height="1020"></rect>
        </g>
    </g>
</svg>